<svg xmlns="http://www.w3.org/2000/svg" width="394" height="85" viewBox="0 0 394 85" fill="none"><path d="M11.9511 23.9328H4.26172L3.00147 26.7029H0L6.59349 12H9.61931L16.2128 26.7029H13.187L11.945 23.9328H11.9511ZM8.10335 15.0867L5.37585 21.3453H10.8369L8.10335 15.0867Z" fill="#B3A081"></path><path d="M11.9511 49.1379H4.26172L3.00147 51.908H0L6.59349 37.2051H9.61931L16.2128 51.908H13.187L11.945 49.1379H11.9511ZM8.10335 40.2979L5.37585 46.5565H10.8369L8.10335 40.2979Z" fill="#B3A081"></path><path d="M26.3193 40.7537C25.8139 39.9135 24.4319 39.116 22.8307 39.116C20.7729 39.116 19.7866 39.9744 19.7866 41.0703C19.7866 42.3488 21.2965 42.708 23.0621 42.9211C26.1305 43.2986 28.9859 44.0961 28.9859 47.6029C28.9859 50.8783 26.0879 52.2847 22.8125 52.2847C19.811 52.2847 17.4975 51.3593 16.4077 48.6744L18.7151 47.475C19.3666 49.0945 21.0652 49.8068 22.8551 49.8068C24.645 49.8068 26.234 49.198 26.234 47.6029C26.234 46.2148 24.785 45.6486 22.8307 45.4416C19.8293 45.0824 17.0531 44.2848 17.0531 40.9911C17.0531 37.9653 20.0363 36.7294 22.7455 36.7051C25.0346 36.7051 27.409 37.3565 28.5232 39.6274L26.3193 40.7598V40.7537Z" fill="#B3A081"></path><path d="M44.0909 50.0633C42.581 51.5549 40.6267 52.249 38.5019 52.249C33.0408 52.249 30.7273 48.4865 30.7091 44.6692C30.6908 40.8275 33.187 36.9189 38.5019 36.9189C40.4988 36.9189 42.3862 37.6739 43.9021 39.1655L42.0513 40.9493C41.0833 40.0056 39.7804 39.5612 38.5019 39.5612C34.9525 39.5612 33.4183 42.2096 33.4427 44.6631C33.4609 47.0984 34.8734 49.6432 38.5019 49.6432C39.7804 49.6432 41.2294 49.1196 42.1975 48.1516L44.0848 50.0633H44.0909Z" fill="#B3A081"></path><path d="M56.6075 51.908H45.6001V37.2051H56.6075V39.896H48.352V43.275H56.3153V45.8564H48.352V49.1744H56.6075V51.9019V51.908Z" fill="#B3A081"></path><path d="M68.8573 37.187H71.6274V51.9082H69.9044V51.9264L62.1725 41.9905V51.9021H59.4023V37.1992H61.6489L68.8512 46.3131V37.1748L68.8573 37.187Z" fill="#B3A081"></path><path d="M79.3408 55.2322C79.9496 56.0541 81.5873 56.1576 81.843 55.3174C82.0744 54.5198 80.8567 54.0145 80.0592 54.5807L79.4504 54.0998L80.1018 52.1455C75.6696 51.5549 73.7823 48.1333 73.7579 44.6692C73.7396 40.8275 76.2358 36.9189 81.5508 36.9189C83.5477 36.9189 85.435 37.6739 86.951 39.1655L85.1002 40.9493C84.1321 40.0056 82.8293 39.5612 81.5508 39.5612C78.0014 39.5612 76.4671 42.2096 76.4915 44.6631C76.5098 47.0984 77.9222 49.6432 81.5508 49.6432C82.8293 49.6432 84.2844 49.1196 85.2463 48.1516L87.1336 50.0633C85.7029 51.4697 83.9008 52.1637 81.9221 52.2489L81.6299 53.1926C83.5599 53.2535 83.9799 54.5564 83.7912 55.6096C83.2676 58.0449 79.5051 58.258 78.2266 56.1758L79.3408 55.2322Z" fill="#B3A081"></path><path d="M98.476 49.137H90.7866L89.5264 51.9071H86.5249L93.1184 37.2042H96.1442L102.738 51.9071H99.7119L98.4699 49.137H98.476ZM90.8292 35.0003C91.3345 33.74 92.1747 32.839 93.5993 33.1495C94.61 33.3808 95.5963 34.5132 96.266 33.1678L97.9889 33.9897C97.3618 35.6517 96.2903 36.151 95.2797 35.877C94.2082 35.5848 93.2828 34.3002 92.4426 35.877L90.8231 34.9942L90.8292 35.0003ZM94.6283 40.297L91.9007 46.5556H97.3618L94.6283 40.297Z" fill="#B3A081"></path><path d="M117.569 44.6448C117.526 48.4438 115.194 52.249 110.025 52.249C104.857 52.249 102.464 48.5291 102.464 44.6692C102.464 40.8093 104.942 36.9189 110.025 36.9189C115.109 36.9189 117.605 40.8032 117.569 44.6509V44.6448ZM105.197 44.7057C105.258 47.1227 106.561 49.7041 110.031 49.7041C113.502 49.7041 114.798 47.0984 114.841 44.6814C114.884 42.2035 113.496 39.4334 110.031 39.4334C106.567 39.4334 105.137 42.2278 105.197 44.7057Z" fill="#B3A081"></path><path d="M14.4474 69.6427C14.5083 73.3625 12.2435 77.1189 7.09896 77.1189H1.32129V62.416H7.09896C12.14 62.416 14.3865 66.008 14.4474 69.6427ZM4.07314 74.4523H7.09896C10.4414 74.4523 11.7625 72.0171 11.7016 69.6183C11.6407 67.3292 10.2952 65.04 7.09896 65.04H4.07314V74.4523Z" fill="#B3A081"></path><path d="M30.9402 69.8499C30.8976 73.6489 28.5658 77.454 23.397 77.454C18.2281 77.454 15.8354 73.7342 15.8354 69.8743C15.8354 66.0144 18.3133 62.124 23.397 62.124C28.4806 62.124 30.9767 66.0083 30.9402 69.856V69.8499ZM18.569 69.9169C18.6299 72.3339 19.9328 74.9153 23.403 74.9153C26.8733 74.9153 28.1701 72.3095 28.2127 69.8925C28.2553 67.4146 26.8672 64.6445 23.403 64.6445C19.9389 64.6445 18.5082 67.439 18.569 69.9169Z" fill="#B3A081"></path><path d="M42.4711 65.9656C41.9658 65.1255 40.5838 64.3279 38.9826 64.3279C36.9248 64.3279 35.9385 65.1863 35.9385 66.2822C35.9385 67.5607 37.4484 67.9199 39.2139 68.133C42.2824 68.5105 45.1377 69.308 45.1377 72.8148C45.1377 76.0902 42.2398 77.4966 38.9643 77.4966C35.9629 77.4966 33.6494 76.5712 32.5596 73.8863L34.867 72.687C35.5184 74.3064 37.217 75.0187 39.0069 75.0187C40.7969 75.0187 42.3859 74.4099 42.3859 72.8148C42.3859 71.4267 40.9369 70.8605 38.9826 70.6535C35.9811 70.2943 33.2049 69.4968 33.2049 66.2031C33.2049 63.1772 36.1881 61.9413 38.8974 61.917C41.1865 61.917 43.5609 62.5684 44.675 64.8393L42.4711 65.9717V65.9656Z" fill="#B3A081"></path><path d="M166.598 13.8535V83.5177H157.38V13.8535H166.598Z" fill="#B3A081"></path><path d="M198.731 13.8535V83.5177H190.674L190.663 36.4872L187.454 83.5177H181.741L178.36 37.5641L178.349 83.5177H170.292V13.8535H182.219C182.573 18.0407 182.938 22.98 183.314 28.664L184.621 46.3839L186.738 13.8535H198.731Z" fill="#B3A081"></path><path d="M202.432 13.8535H211.712C214.224 13.8535 216.151 14.2405 217.502 15.0144C218.852 15.7883 219.867 16.9091 220.543 18.3693C221.222 19.8332 221.682 21.6037 221.923 23.6846C222.164 25.7654 222.284 28.9852 222.284 33.344V39.4113C222.284 43.8577 222.05 47.0994 221.583 49.1365C221.116 51.1735 220.258 52.7359 219.009 53.8275C217.761 54.919 216.129 55.4629 214.118 55.4629H211.643V83.5177H202.425V13.8535H202.432ZM211.646 25.7727V43.5C211.909 43.5292 212.135 43.5438 212.325 43.5438C213.172 43.5438 213.76 43.1349 214.088 42.3172C214.417 41.4994 214.581 39.7983 214.581 37.2173V31.4932C214.581 29.113 214.391 27.5651 214.012 26.846C213.632 26.1305 212.844 25.769 211.646 25.769V25.7727Z" fill="#B3A081"></path><path d="M224.934 13.8535H231.458C235.806 13.8535 238.752 14.1821 240.292 14.8428C241.833 15.5036 243.085 17.1865 244.056 19.8989C245.027 22.6113 245.513 26.9336 245.513 32.8731C245.513 38.2942 245.17 41.9375 244.483 43.803C243.797 45.6684 242.446 46.7855 240.435 47.1578C242.26 48.0486 243.483 49.2387 244.111 50.7281C244.739 52.2212 245.129 53.5902 245.283 54.8387C245.436 56.0872 245.513 59.5224 245.513 65.1443V83.5177H236.952V60.3693C236.952 56.6421 236.802 54.3312 236.503 53.4405C236.204 52.5534 235.419 52.108 234.148 52.108V83.5177H224.931V13.8535H224.934ZM234.152 25.7727V41.2621C235.189 41.2621 235.915 40.9811 236.331 40.4225C236.748 39.864 236.956 38.0496 236.956 34.9795V31.15C236.956 28.9414 236.755 27.4921 236.353 26.8058C235.952 26.1158 235.218 25.7727 234.152 25.7727Z" fill="#B3A081"></path><path d="M270.14 54.6452C270.14 61.6434 270.056 66.6009 269.888 69.5104C269.72 72.4236 269.194 75.0812 268.311 77.4906C267.427 79.9 266.234 81.7508 264.733 83.0395C263.229 84.3318 261.477 84.9743 259.48 84.9743C257.483 84.9743 255.881 84.3647 254.369 83.1454C252.858 81.9261 251.642 80.0971 250.726 77.6585C249.806 75.2199 249.258 72.566 249.083 69.7002C248.908 66.8309 248.82 61.8113 248.82 54.6416V42.7224C248.82 35.7242 248.904 30.7667 249.072 27.8572C249.24 24.9477 249.766 22.2864 250.649 19.877C251.533 17.4676 252.726 15.6168 254.227 14.3245C255.731 13.0322 257.48 12.3896 259.48 12.3896C261.378 12.3896 263.08 12.9993 264.591 14.2186C266.102 15.4379 267.318 17.2668 268.234 19.7054C269.154 22.144 269.702 24.798 269.877 27.6674C270.052 30.5367 270.14 35.5563 270.14 42.726V54.6452ZM260.922 31.7524C260.922 28.5107 260.831 26.4371 260.648 25.5354C260.466 24.6337 260.09 24.1811 259.52 24.1811C259.038 24.1811 258.67 24.5461 258.414 25.2799C258.159 26.01 258.031 28.1711 258.031 31.756V64.2864C258.031 68.3313 258.115 70.8283 258.283 71.7738C258.451 72.7193 258.841 73.1939 259.454 73.1939C260.068 73.1939 260.484 72.6499 260.659 71.5584C260.834 70.4669 260.922 67.8713 260.922 63.7717V31.7597V31.7524Z" fill="#B3A081"></path><path d="M295.489 13.8535L290.798 83.5177H276.798L271.472 13.8535H281.19C282.318 33.041 283.125 49.2788 283.61 62.5597C284.085 49.1365 284.592 37.2173 285.125 26.8058L285.764 13.8535H295.482H295.489Z" fill="#B3A081"></path><path d="M312.384 13.854L317.656 83.5182H308.237L307.744 70.9967H304.448L303.893 83.5182H294.365L299.067 13.854H312.388H312.384ZM313.461 0L306.258 11.66H301.816L305.667 0H313.461ZM307.5 58.6467C307.032 50.7578 306.565 41.0034 306.094 29.3872C305.156 42.7265 304.564 52.4809 304.324 58.6467H307.496H307.5Z" fill="#B3A081"></path><path d="M340.147 13.8535L335.456 83.5177H321.456L316.13 13.8535H325.848C326.976 33.041 327.783 49.2788 328.268 62.5597C328.743 49.1365 329.25 37.2173 329.783 26.8058L330.422 13.8535H340.14H340.147Z" fill="#B3A081"></path><path d="M341.698 13.8535H357.067V27.7951H350.916V41.0066H356.673V54.2582H350.916V69.5761H357.681V83.5177H341.702V13.8535H341.698Z" fill="#B3A081"></path><path d="M369.545 13.8535V83.5177H360.327V13.8535H369.545Z" fill="#B3A081"></path><path d="M392.77 34.9401H384.21V29.7782C384.21 27.3688 384.1 25.8355 383.881 25.1748C383.662 24.514 383.297 24.1855 382.786 24.1855C382.231 24.1855 381.811 24.6308 381.526 25.5216C381.242 26.4123 381.099 27.7594 381.099 29.5701C381.099 31.8955 381.26 33.6478 381.577 34.8233C381.884 35.9988 382.749 37.4188 384.18 39.0835C388.284 43.8694 390.868 47.7975 391.931 50.8676C392.997 53.9378 393.53 58.8843 393.53 65.7109C393.53 70.6721 393.234 74.33 392.642 76.6846C392.051 79.0356 390.908 81.0105 389.218 82.6022C387.524 84.1938 385.557 84.9897 383.308 84.9897C380.84 84.9897 378.737 84.0697 376.992 82.2371C375.247 80.4009 374.105 78.0645 373.568 75.2244C373.028 72.3842 372.758 68.3539 372.758 63.1336V58.574H381.318V67.0507C381.318 69.6609 381.439 71.3401 381.68 72.0848C381.921 72.8296 382.348 73.2019 382.961 73.2019C383.574 73.2019 384.031 72.7273 384.33 71.7818C384.629 70.8363 384.779 69.4309 384.779 67.5654C384.779 63.4622 384.494 60.7826 383.925 59.5195C383.341 58.2564 381.902 56.15 379.613 53.193C377.321 50.2105 375.806 48.0457 375.061 46.695C374.316 45.3479 373.699 43.4825 373.21 41.1023C372.721 38.7221 372.477 35.6812 372.477 31.9795C372.477 26.6423 372.823 22.7435 373.517 20.2757C374.211 17.8079 375.331 15.8804 376.876 14.4895C378.423 13.0986 380.289 12.4014 382.479 12.4014C384.874 12.4014 386.911 13.1607 388.598 14.683C390.284 16.2053 391.401 18.1182 391.945 20.429C392.493 22.7398 392.767 26.6606 392.767 32.1985V34.9511L392.77 34.9401Z" fill="#B3A081"></path></svg>